#tb 0: 1/7
#media_type 0: video
#codec_id 0: rawvideo
#dimensions 0: 320x240
#sar 0: 1/1
0,          0,          0,        1,   115200, 0xeba70ff3
0,          1,          1,        1,   115200, 0xeba70ff3
0,          2,          2,        1,   115200, 0x0ebce86f
0,          3,          3,        1,   115200, 0x0ebce86f
0,          4,          4,        1,   115200, 0x0ebce86f
0,          5,          5,        1,   115200, 0xa9c0fe04
0,          6,          6,        1,   115200, 0xa9c0fe04
0,          7,          7,        1,   115200, 0x779eb44c
0,          8,          8,        1,   115200, 0x779eb44c
0,          9,          9,        1,   115200, 0x27a904da
0,         10,         10,        1,   115200, 0x27a904da
0,         11,         11,        1,   115200, 0x27a904da
0,         12,         12,        1,   115200, 0x328d092e
0,         13,         13,        1,   115200, 0x328d092e
